<svg width="166" height="166" viewBox="0 0 166 166" fill="none" xmlns="http://www.w3.org/2000/svg">
<path d="M83 55.3334V145.25M83 55.3334C80.4981 45.0234 76.1902 36.2093 70.6381 30.0403C65.086 23.8713 58.5474 20.6338 51.875 20.7501C47.289 20.7501 42.8908 22.5719 39.6479 25.8147C36.4051 29.0575 34.5833 33.4557 34.5833 38.0418C34.5833 42.6278 36.4051 47.026 39.6479 50.2688C42.8908 53.5116 47.289 55.3334 51.875 55.3334M83 55.3334C85.5019 45.0234 89.8098 36.2093 95.3619 30.0403C100.914 23.8713 107.453 20.6338 114.125 20.7501C118.711 20.7501 123.109 22.5719 126.352 25.8147C129.595 29.0575 131.417 33.4557 131.417 38.0418C131.417 42.6278 129.595 47.026 126.352 50.2688C123.109 53.5116 118.711 55.3334 114.125 55.3334M131.417 83V131.417C131.417 135.086 129.959 138.604 127.365 141.198C124.771 143.793 121.252 145.25 117.583 145.25H48.4167C44.7478 145.25 41.2293 143.793 38.635 141.198C36.0408 138.604 34.5833 135.086 34.5833 131.417V83M20.75 62.25C20.75 60.4156 21.4787 58.6563 22.7758 57.3592C24.073 56.0621 25.8323 55.3334 27.6667 55.3334H138.333C140.168 55.3334 141.927 56.0621 143.224 57.3592C144.521 58.6563 145.25 60.4156 145.25 62.25V76.0834C145.25 77.9178 144.521 79.6771 143.224 80.9742C141.927 82.2713 140.168 83 138.333 83H27.6667C25.8323 83 24.073 82.2713 22.7758 80.9742C21.4787 79.6771 20.75 77.9178 20.75 76.0834V62.25Z" stroke="#EC1D35" stroke-width="2" stroke-linecap="round" stroke-linejoin="round"/>
</svg>
